HIERARCHY
ROOT pelvis
{
  OFFSET 0 100 0
  CHANNELS 6 Xposition Yposition Zposition Zrotation Xrotation Yrotation
  JOINT pelvis_right_femur
  {
    OFFSET -10.78128 -3.44521 -0.5502486
    CHANNELS 3 Zrotation Xrotation Yrotation
    JOINT right_femur_tibia
    {
      OFFSET -0.8047443 -44.0398 -0.1307829
      CHANNELS 3 Zrotation Xrotation Yrotation
      JOINT right_tibia_foot
      {
        OFFSET 3.006224 -47.83518 -5
        CHANNELS 3 Zrotation Xrotation Yrotation
        End Site
        {
          OFFSET 0 -5 15
        }
      }
    }
  }
  JOINT pelvis_left_femur
  {
    OFFSET 10.78128 -3.44521 -0.5502486
    CHANNELS 3 Zrotation Xrotation Yrotation
    JOINT left_femur_tibia
    {
      OFFSET 0.8047443 -44.0398 -0.1307829
      CHANNELS 3 Zrotation Xrotation Yrotation
      JOINT left_tibia_foot
      {
        OFFSET -4.370144 -48.10324 -4.275266
        CHANNELS 3 Zrotation Xrotation Yrotation
        End Site
        {
          OFFSET 0 -5 15
        }
      }
    }
  }
  JOINT pelvis_spine1
  {
    OFFSET 0 6.468898 -3.129235
    CHANNELS 3 Zrotation Xrotation Yrotation
    JOINT spine1
    {
      OFFSET 0 23.15396 4.99043
      CHANNELS 3 Zrotation Xrotation Yrotation
      JOINT spine2
      {
        OFFSET 0 20.79997 -5.064912
        CHANNELS 3 Zrotation Xrotation Yrotation
        JOINT neck
        {
          OFFSET 0 14.38658 9.616178
          CHANNELS 3 Zrotation Xrotation Yrotation
          End Site
          {
            OFFSET 0 20 0
          }
        }
      }
      JOINT right_manubrium
      {
        OFFSET -5.722621 16.35077 3.967754
        CHANNELS 3 Zrotation Xrotation Yrotation
        JOINT right_clavicle
        {
          OFFSET -13.16364 1.694482 -4.693211
          CHANNELS 3 Zrotation Xrotation Yrotation
          JOINT right_humerus
          {
            OFFSET -28.5034 -0.3100689 -2.792744
            CHANNELS 3 Zrotation Xrotation Yrotation
            JOINT right_radius
            {
              OFFSET -25.15693 0.02248979 -1.271978
              CHANNELS 3 Zrotation Xrotation Yrotation
              End Site
              {
                OFFSET -15 0 0
              }
            }
          }
        }
      }
      JOINT left_manubrium
      {
        OFFSET 5.722621 16.35077 3.967754
        CHANNELS 3 Zrotation Xrotation Yrotation
        JOINT left_clavicle
        {
          OFFSET 13.16364 1.694482 -4.693211
          CHANNELS 3 Zrotation Xrotation Yrotation
          JOINT left_humerus
          {
            OFFSET 29.39168 -1.063119 -2.237045
            CHANNELS 3 Zrotation Xrotation Yrotation
            JOINT left_radius
            {
              OFFSET 24.59957 -0.9528479 0.9047498
              CHANNELS 3 Zrotation Xrotation Yrotation
              End Site
              {
                OFFSET 15 -0 -0
              }
            }
          }
        }
      }
    }
  }
}
MOTION
Frames: 23
Frame Time: 0.0416666666667
-35.44457 117.3362 167.6419 -0.254851 -9.833228 4.681353 5.887976 19.0784 2.715122 -0 18.17279 -0 -10.61584 -17.77266 -3.790788 4.924988 -20.72733 -3.250373 -0 14.19436 -0 3.196363 0.430614 16.59801 1.186925 -4.161675 8.0425 0.1289032 16.09234 -5.532345 1.128591 19.23841 2.03172 0.5701188 -17.50187 4.041913 -1.075902 -31.5002 12.59075 87.02753 16.77086 -7.880414 -0 0 31.82918 -21.82064 18.46918 14.84479 1.43806 -21.78018 -7.964042 -98.12422 12.49088 40.84211 0 0 -4.689928 2.755334 15.18674 10.33586
-33.97874 117.3085 172.611 -0.3864267 -9.828979 3.910763 5.887976 19.0784 2.715122 -0 18.17279 -0 -10.61584 -17.77266 -3.790788 4.924988 -20.72733 -3.250373 -0 14.19436 -0 3.196363 0.430614 16.59801 1.186925 -4.161675 8.0425 0.1289032 16.09234 -5.532345 1.128591 19.23841 2.03172 0.5701188 -17.50187 4.041913 -1.075902 -31.5002 12.59075 87.02753 16.77086 -7.880414 -0 0 31.82918 -21.82064 18.46918 14.84479 1.43806 -21.78018 -7.964042 -98.12422 12.49088 40.84211 0 0 -4.689928 2.755334 15.18674 10.33586
-32.57889 117.2808 177.5991 -0.5179305 -9.822987 3.140198 5.887976 19.0784 2.715122 -0 18.17279 -0 -10.61584 -17.77266 -3.790788 4.924988 -20.72733 -3.250373 -0 14.19436 -0 3.196363 0.430614 16.59801 1.186925 -4.161675 8.0425 0.1289032 16.09234 -5.532345 1.128591 19.23841 2.03172 0.5701188 -17.50187 4.041913 -1.075902 -31.5002 12.59075 87.02753 16.77086 -7.880414 -0 0 31.82918 -21.82064 18.46918 14.84479 1.43806 -21.78018 -7.964042 -98.12422 12.49088 40.84211 0 0 -4.689928 2.755334 15.18674 10.33586
-31.24526 117.2531 182.6054 -0.6493379 -9.815252 2.369665 5.887976 19.0784 2.715122 -0 18.17279 -0 -10.61584 -17.77266 -3.790788 4.924988 -20.72733 -3.250373 -0 14.19436 -0 3.196363 0.430614 16.59801 1.186925 -4.161675 8.0425 0.1289032 16.09234 -5.532345 1.128591 19.23841 2.03172 0.5701188 -17.50187 4.041913 -1.075902 -31.5002 12.59075 87.02753 16.77086 -7.880414 -0 0 31.82918 -21.82064 18.46918 14.84479 1.43806 -21.78018 -7.964042 -98.12422 12.49088 40.84211 0 0 -4.689928 2.755334 15.18674 10.33586
-29.97809 117.2254 187.6288 -0.7806244 -9.805778 1.599172 5.887976 19.0784 2.715122 -0 18.17279 -0 -10.61584 -17.77266 -3.790788 4.924988 -20.72733 -3.250373 -0 14.19436 -0 3.196363 0.430614 16.59801 1.186925 -4.161675 8.0425 0.1289032 16.09234 -5.532345 1.128591 19.23841 2.03172 0.5701188 -17.50187 4.041913 -1.075902 -31.5002 12.59075 87.02753 16.77086 -7.880414 -0 0 31.82918 -21.82064 18.46918 14.84479 1.43806 -21.78018 -7.964042 -98.12422 12.49088 40.84211 0 0 -4.689928 2.755334 15.18674 10.33586
-28.7776 117.1977 192.6686 -0.9117657 -9.794564 0.8287263 5.887976 19.0784 2.715122 -0 18.17279 -0 -10.61584 -17.77266 -3.790788 4.924988 -20.72733 -3.250373 -0 14.19436 -0 3.196363 0.430614 16.59801 1.186925 -4.161675 8.0425 0.1289032 16.09234 -5.532345 1.128591 19.23841 2.03172 0.5701188 -17.50187 4.041913 -1.075902 -31.5002 12.59075 87.02753 16.77086 -7.880414 -0 0 31.82918 -21.82064 18.46918 14.84479 1.43806 -21.78018 -7.964042 -98.12422 12.49088 40.84211 0 0 -4.689928 2.755334 15.18674 10.33586
-27.64401 117.17 197.7239 -1.042737 -9.781614 0.05833723 5.887976 19.0784 2.715122 -0 18.17279 -0 -10.61584 -17.77266 -3.790788 4.924988 -20.72733 -3.250373 -0 14.19436 -0 3.196363 0.430614 16.59801 1.186925 -4.161675 8.0425 0.1289032 16.09234 -5.532345 1.128591 19.23841 2.03172 0.5701188 -17.50187 4.041913 -1.075902 -31.5002 12.59075 87.02753 16.77086 -7.880414 -0 0 31.82918 -21.82064 18.46918 14.84479 1.43806 -21.78018 -7.964042 -98.12422 12.49088 40.84211 0 0 -4.689928 2.755334 15.18674 10.33586
-26.5775 117.1423 202.7938 -1.173515 -9.76693 -0.7119878 5.887976 19.0784 2.715122 -0 18.17279 -0 -10.61584 -17.77266 -3.790788 4.924988 -20.72733 -3.250373 -0 14.19436 -0 3.196363 0.430614 16.59801 1.186925 -4.161675 8.0425 0.1289032 16.09234 -5.532345 1.128591 19.23841 2.03172 0.5701188 -17.50187 4.041913 -1.075902 -31.5002 12.59075 87.02753 16.77086 -7.880414 -0 0 31.82918 -21.82064 18.46918 14.84479 1.43806 -21.78018 -7.964042 -98.12422 12.49088 40.84211 0 0 -4.689928 2.755334 15.18674 10.33586
-25.57827 117.1145 207.8773 -1.304074 -9.750514 -1.482241 5.887976 19.0784 2.715122 -0 18.17279 -0 -10.61584 -17.77266 -3.790788 4.924988 -20.72733 -3.250373 -0 14.19436 -0 3.196363 0.430614 16.59801 1.186925 -4.161675 8.0425 0.1289032 16.09234 -5.532345 1.128591 19.23841 2.03172 0.5701188 -17.50187 4.041913 -1.075902 -31.5002 12.59075 87.02753 16.77086 -7.880414 -0 0 31.82918 -21.82064 18.46918 14.84479 1.43806 -21.78018 -7.964042 -98.12422 12.49088 40.84211 0 0 -4.689928 2.755334 15.18674 10.33586
-24.64649 117.0868 212.9737 -1.434391 -9.73237 -2.252414 5.887976 19.0784 2.715122 -0 18.17279 -0 -10.61584 -17.77266 -3.790788 4.924988 -20.72733 -3.250373 -0 14.19436 -0 3.196363 0.430614 16.59801 1.186925 -4.161675 8.0425 0.1289032 16.09234 -5.532345 1.128591 19.23841 2.03172 0.5701188 -17.50187 4.041913 -1.075902 -31.5002 12.59075 87.02753 16.77086 -7.880414 -0 0 31.82918 -21.82064 18.46918 14.84479 1.43806 -21.78018 -7.964042 -98.12422 12.49088 40.84211 0 0 -4.689928 2.755334 15.18674 10.33586
-23.78233 117.0591 218.0819 -1.564442 -9.712502 -3.0225 5.887976 19.0784 2.715122 -0 18.17279 -0 -10.61584 -17.77266 -3.790788 4.924988 -20.72733 -3.250373 -0 14.19436 -0 3.196363 0.430614 16.59801 1.186925 -4.161675 8.0425 0.1289032 16.09234 -5.532345 1.128591 19.23841 2.03172 0.5701188 -17.50187 4.041913 -1.075902 -31.5002 12.59075 87.02753 16.77086 -7.880414 -0 0 31.82918 -21.82064 18.46918 14.84479 1.43806 -21.78018 -7.964042 -98.12422 12.49088 40.84211 0 0 -4.689928 2.755334 15.18674 10.33586
-22.98594 117.0314 223.2011 -1.694202 -9.690913 -3.79249 5.887976 19.0784 2.715122 -0 18.17279 -0 -10.61584 -17.77266 -3.790788 4.924988 -20.72733 -3.250373 -0 14.19436 -0 3.196363 0.430614 16.59801 1.186925 -4.161675 8.0425 0.1289032 16.09234 -5.532345 1.128591 19.23841 2.03172 0.5701188 -17.50187 4.041913 -1.075902 -31.5002 12.59075 87.02753 16.77086 -7.880414 -0 0 31.82918 -21.82064 18.46918 14.84479 1.43806 -21.78018 -7.964042 -98.12422 12.49088 40.84211 0 0 -4.689928 2.755334 15.18674 10.33586
-22.25745 117.0037 228.3305 -1.823647 -9.667607 -4.562377 5.887976 19.0784 2.715122 -0 18.17279 -0 -10.61584 -17.77266 -3.790788 4.924988 -20.72733 -3.250373 -0 14.19436 -0 3.196363 0.430614 16.59801 1.186925 -4.161675 8.0425 0.1289032 16.09234 -5.532345 1.128591 19.23841 2.03172 0.5701188 -17.50187 4.041913 -1.075902 -31.5002 12.59075 87.02753 16.77086 -7.880414 -0 0 31.82918 -21.82064 18.46918 14.84479 1.43806 -21.78018 -7.964042 -98.12422 12.49088 40.84211 0 0 -4.689928 2.755334 15.18674 10.33586
-21.597 116.976 233.469 -1.952753 -9.642589 -5.332154 5.887976 19.0784 2.715122 -0 18.17279 -0 -10.61584 -17.77266 -3.790788 4.924988 -20.72733 -3.250373 -0 14.19436 -0 3.196363 0.430614 16.59801 1.186925 -4.161675 8.0425 0.1289032 16.09234 -5.532345 1.128591 19.23841 2.03172 0.5701188 -17.50187 4.041913 -1.075902 -31.5002 12.59075 87.02753 16.77086 -7.880414 -0 0 31.82918 -21.82064 18.46918 14.84479 1.43806 -21.78018 -7.964042 -98.12422 12.49088 40.84211 0 0 -4.689928 2.755334 15.18674 10.33586
-21.00471 116.9483 238.6159 -2.081497 -9.615863 -6.101813 5.887976 19.0784 2.715122 -0 18.17279 -0 -10.61584 -17.77266 -3.790788 4.924988 -20.72733 -3.250373 -0 14.19436 -0 3.196363 0.430614 16.59801 1.186925 -4.161675 8.0425 0.1289032 16.09234 -5.532345 1.128591 19.23841 2.03172 0.5701188 -17.50187 4.041913 -1.075902 -31.5002 12.59075 87.02753 16.77086 -7.880414 -0 0 31.82918 -21.82064 18.46918 14.84479 1.43806 -21.78018 -7.964042 -98.12422 12.49088 40.84211 0 0 -4.689928 2.755334 15.18674 10.33586
-20.48067 116.9206 243.7701 -2.209855 -9.587434 -6.871346 5.887976 19.0784 2.715122 -0 18.17279 -0 -10.61584 -17.77266 -3.790788 4.924988 -20.72733 -3.250373 -0 14.19436 -0 3.196363 0.430614 16.59801 1.186925 -4.161675 8.0425 0.1289032 16.09234 -5.532345 1.128591 19.23841 2.03172 0.5701188 -17.50187 4.041913 -1.075902 -31.5002 12.59075 87.02753 16.77086 -7.880414 -0 0 31.82918 -21.82064 18.46918 14.84479 1.43806 -21.78018 -7.964042 -98.12422 12.49088 40.84211 0 0 -4.689928 2.755334 15.18674 10.33586
-20.02498 116.8929 248.9309 -2.337803 -9.557309 -7.640746 5.887976 19.0784 2.715122 -0 18.17279 -0 -10.61584 -17.77266 -3.790788 4.924988 -20.72733 -3.250373 -0 14.19436 -0 3.196363 0.430614 16.59801 1.186925 -4.161675 8.0425 0.1289032 16.09234 -5.532345 1.128591 19.23841 2.03172 0.5701188 -17.50187 4.041913 -1.075902 -31.5002 12.59075 87.02753 16.77086 -7.880414 -0 0 31.82918 -21.82064 18.46918 14.84479 1.43806 -21.78018 -7.964042 -98.12422 12.49088 40.84211 0 0 -4.689928 2.755334 15.18674 10.33586
-19.63771 116.8652 254.0972 -2.465317 -9.525492 -8.410006 5.887976 19.0784 2.715122 -0 18.17279 -0 -10.61584 -17.77266 -3.790788 4.924988 -20.72733 -3.250373 -0 14.19436 -0 3.196363 0.430614 16.59801 1.186925 -4.161675 8.0425 0.1289032 16.09234 -5.532345 1.128591 19.23841 2.03172 0.5701188 -17.50187 4.041913 -1.075902 -31.5002 12.59075 87.02753 16.77086 -7.880414 -0 0 31.82918 -21.82064 18.46918 14.84479 1.43806 -21.78018 -7.964042 -98.12422 12.49088 40.84211 0 0 -4.689928 2.755334 15.18674 10.33586
-19.31895 116.8375 259.2682 -2.592375 -9.49199 -9.179119 5.887976 19.0784 2.715122 -0 18.17279 -0 -10.61584 -17.77266 -3.790788 4.924988 -20.72733 -3.250373 -0 14.19436 -0 3.196363 0.430614 16.59801 1.186925 -4.161675 8.0425 0.1289032 16.09234 -5.532345 1.128591 19.23841 2.03172 0.5701188 -17.50187 4.041913 -1.075902 -31.5002 12.59075 87.02753 16.77086 -7.880414 -0 0 31.82918 -21.82064 18.46918 14.84479 1.43806 -21.78018 -7.964042 -98.12422 12.49088 40.84211 0 0 -4.689928 2.755334 15.18674 10.33586
-19.06873 116.8098 264.443 -2.718953 -9.456809 -9.948078 5.887976 19.0784 2.715122 -0 18.17279 -0 -10.61584 -17.77266 -3.790788 4.924988 -20.72733 -3.250373 -0 14.19436 -0 3.196363 0.430614 16.59801 1.186925 -4.161675 8.0425 0.1289032 16.09234 -5.532345 1.128591 19.23841 2.03172 0.5701188 -17.50187 4.041913 -1.075902 -31.5002 12.59075 87.02753 16.77086 -7.880414 -0 0 31.82918 -21.82064 18.46918 14.84479 1.43806 -21.78018 -7.964042 -98.12422 12.49088 40.84211 0 0 -4.689928 2.755334 15.18674 10.33586
-18.88711 116.7821 269.6206 -2.845027 -9.419956 -10.71688 5.887976 19.0784 2.715122 -0 18.17279 -0 -10.61584 -17.77266 -3.790788 4.924988 -20.72733 -3.250373 -0 14.19436 -0 3.196363 0.430614 16.59801 1.186925 -4.161675 8.0425 0.1289032 16.09234 -5.532345 1.128591 19.23841 2.03172 0.5701188 -17.50187 4.041913 -1.075902 -31.5002 12.59075 87.02753 16.77086 -7.880414 -0 0 31.82918 -21.82064 18.46918 14.84479 1.43806 -21.78018 -7.964042 -98.12422 12.49088 40.84211 0 0 -4.689928 2.755334 15.18674 10.33586
-18.77412 116.7544 274.8002 -2.970576 -9.381438 -11.48551 5.887976 19.0784 2.715122 -0 18.17279 -0 -10.61584 -17.77266 -3.790788 4.924988 -20.72733 -3.250373 -0 14.19436 -0 3.196363 0.430614 16.59801 1.186925 -4.161675 8.0425 0.1289032 16.09234 -5.532345 1.128591 19.23841 2.03172 0.5701188 -17.50187 4.041913 -1.075902 -31.5002 12.59075 87.02753 16.77086 -7.880414 -0 0 31.82918 -21.82064 18.46918 14.84479 1.43806 -21.78018 -7.964042 -98.12422 12.49088 40.84211 0 0 -4.689928 2.755334 15.18674 10.33586
-18.72978 116.7267 279.9808 -3.095575 -9.341262 -12.25396 5.887976 19.0784 2.715122 -0 18.17279 -0 -10.61584 -17.77266 -3.790788 4.924988 -20.72733 -3.250373 -0 14.19436 -0 3.196363 0.430614 16.59801 1.186925 -4.161675 8.0425 0.1289032 16.09234 -5.532345 1.128591 19.23841 2.03172 0.5701188 -17.50187 4.041913 -1.075902 -31.5002 12.59075 87.02753 16.77086 -7.880414 -0 0 31.82918 -21.82064 18.46918 14.84479 1.43806 -21.78018 -7.964042 -98.12422 12.49088 40.84211 0 0 -4.689928 2.755334 15.18674 10.33586
